<?xml version="1.0" encoding="utf-8"?>
<!-- Generator: Adobe Illustrator 28.1.0, SVG Export Plug-In . SVG Version: 6.00 Build 0)  -->
<svg version="1.1" id="Layer_1" xmlns="http://www.w3.org/2000/svg" xmlns:xlink="http://www.w3.org/1999/xlink" x="0px" y="0px"
	 viewBox="0 0 310.3 34.9" fill="white" xml:space="preserve">
<path d="M0.5,18.2C0.4,11.3,5.9,5.6,12.8,5.5c0.2,0,0.4,0,0.6,0c3.2-0.1,6.3,1,8.6,3.2l-0.4,0.5c-2.2-2.1-5.1-3.1-8.1-3
	c-6.6-0.2-12,5-12.2,11.6c0,0.2,0,0.3,0,0.5c-0.1,6.6,5.2,11.9,11.7,12c0.2,0,0.3,0,0.5,0c3,0.1,5.9-1,8.1-3.1l0.4,0.5
	c-2.3,2.2-5.4,3.3-8.6,3.2C6.5,31.1,0.7,25.7,0.5,18.8C0.5,18.6,0.5,18.4,0.5,18.2 M26.3,18.2c-0.1-6.9,5.4-12.6,12.3-12.7
	c0.2,0,0.4,0,0.6,0c6.9-0.2,12.7,5.2,12.9,12.1c0,0.2,0,0.4,0,0.6c0.1,6.9-5.4,12.6-12.3,12.7c-0.2,0-0.4,0-0.6,0
	c-6.9,0.2-12.7-5.2-12.9-12.1C26.3,18.6,26.3,18.4,26.3,18.2 M51.4,18.2c0.1-6.5-5.1-11.9-11.6-12c-0.2,0-0.4,0-0.6,0
	C32.7,6,27.2,11.1,27,17.7c0,0.2,0,0.4,0,0.6c-0.1,6.5,5.1,11.9,11.7,12c0.2,0,0.4,0,0.5,0c6.5,0.2,12-4.9,12.2-11.5
	C51.4,18.6,51.4,18.4,51.4,18.2 M59.8,5.6h9.5c8,0,13.3,5.3,13.3,12.6s-5.3,12.6-13.3,12.6h-9.5L59.8,5.6z M69.2,30.1
	c7.7,0,12.6-5,12.6-11.9S76.9,6.3,69.2,6.3h-8.7v23.8L69.2,30.1z M107,30.1v0.7H90.2V5.6h16.2v0.7H90.9v11.4h13.9v0.7H90.9v11.8
	L107,30.1z M124.9,0.5h0.7l-11.9,33.9h-0.7L124.9,0.5z M157.1,5.6v25.2h-0.7V7.2l-11.5,20.1h-0.4L133,7.2v23.6h-0.7V5.6h0.6
	l11.8,20.7l11.8-20.7H157.1z M182.7,23.2h-15.4l-3.5,7.6h-0.8l11.7-25.2h0.7l11.7,25.2h-0.8L182.7,23.2z M182.4,22.5L175,6.6
	l-7.4,15.9L182.4,22.5z M209.7,30.1v0.7h-16.8V5.6h16.2v0.7h-15.5v11.4h13.9v0.7h-13.9v11.8L209.7,30.1z M215,27.4l0.5-0.5
	c2.2,2.2,5.2,3.4,8.3,3.3c5.5,0,7.9-2.5,7.9-5.6c0-8.5-16-3.5-16-12.8c0-3.3,2.5-6.3,8.4-6.3c2.6,0,5.2,0.8,7.3,2.3L231,8.4
	c-2-1.4-4.4-2.2-6.9-2.2c-5.3,0-7.7,2.6-7.7,5.7c0,8.5,16,3.6,16,12.7c0,3.3-2.6,6.3-8.6,6.3C220.1,30.9,216.6,29.4,215,27.4
	 M244.4,6.3H235V5.6h19.4v0.7h-9.4v24.5h-0.7L244.4,6.3z M278,30.8l-6.4-8.9c-1,0.2-2,0.3-3,0.3h-7.8v8.6h-0.7V5.6h8.5
	c6.2,0,9.9,3.1,9.9,8.3c0.2,3.8-2.5,7.1-6.2,7.8l6.6,9.1L278,30.8z M268.7,21.5c5.9,0,9.1-2.8,9.1-7.6s-3.2-7.6-9.1-7.6h-7.9v15.2
	H268.7z M283.9,18.2c0.1-7.1,6-12.8,13.1-12.7c7,0.1,12.6,5.7,12.7,12.7c-0.1,7.1-6,12.8-13.1,12.7C289.7,30.8,284,25.2,283.9,18.2
	 M309.1,18.2c0-6.7-5.5-12.2-12.2-12.2c-6.7,0-12.2,5.5-12.2,12.2c0,6.7,5.5,12.2,12.2,12.2C303.6,30.4,309,24.9,309.1,18.2"/>
</svg>
